<?xml version="1.0" standalone="no"?><!DOCTYPE svg PUBLIC "-//W3C//DTD SVG 1.1//EN" "http://www.w3.org/Graphics/SVG/1.1/DTD/svg11.dtd"><svg t="1742869887804" class="icon" viewBox="0 0 1024 1024" version="1.1" xmlns="http://www.w3.org/2000/svg" p-id="4428" width="200" height="200" xmlns:xlink="http://www.w3.org/1999/xlink"><path d="M205.525098 0h612.949804c56.557671 0 107.918804 23.122581 145.180802 60.344296 37.221715 37.221715 60.344296 88.623131 60.344296 145.180802v612.949804c0 56.557671-23.122581 107.918804-60.344296 145.180802-37.221715 37.221715-88.623131 60.344296-145.180802 60.344296H205.525098c-56.557671 0-107.918804-23.122581-145.180802-60.344296C23.122581 926.433989 0 875.032573 0 818.474902V205.525098c0-56.557671 23.122581-107.918804 60.344296-145.180802C97.566011 23.122581 148.967427 0 205.525098 0z m612.949804 39.39701H205.525098c-45.681196 0-87.213218 18.691424-117.304799 48.823289-30.131865 30.131865-48.823289 71.663887-48.823289 117.304799v612.949804c0 45.681196 18.691424 87.213218 48.823289 117.304799 30.131865 30.131865 71.663887 48.823289 117.304799 48.823289h612.949804c45.681196 0 87.213218-18.691424 117.304799-48.823289 30.131865-30.131865 48.823289-71.663887 48.823289-117.304799V205.525098c0-45.681196-18.691424-87.213218-48.823289-117.304799-30.131865-30.131865-71.663887-48.823289-117.304799-48.823289z" fill="#1196db" p-id="4429"></path><path d="M604.369473 768.322266c62.237608 0 112.793076 50.273485 113.155625 112.551377h94.303069c-7.291267-141.394178-119.963493-254.50952-261.317388-262.405036-3.021243-19.859638-4.552006-39.920692-4.552006-60.02203-0.161133-65.178285 15.952164-129.389772 46.889693-186.793391 31.501495 8.096932 64.25177-7.855232 77.343824-37.66483s2.658694-64.694886-24.653344-82.419513c-27.271755-17.724626-63.405822-13.05177-85.319906 10.997325s-23.162864 60.465146-2.940677 85.964438c-35.368686 64.292054-53.898977 136.479622-53.898977 209.835405 0 20.38332 1.409913 40.76664 4.229741 60.948544-31.219512 3.021243-61.713926 11.359874-90.153895 24.613061-71.019355-124.555783-68.803777-277.793234 5.760504-400.254288 31.058379 9.587411 64.49347-4.753423 78.955153-33.837923s5.760504-64.412903-20.62502-83.38631c-26.385523-19.01369-62.600157-16.113297-85.642171 6.848151-23.001731 22.961448-26.022974 59.176082-7.089851 85.601889-84.030842 135.996223-86.971518 307.07915-7.694099 445.8952-72.751534 48.420456-118.392447 128.302124-123.145869 215.515342h233.441385c0.644532-61.955625 50.958301-111.866562 112.913926-111.987411z" fill="#1196db" p-id="4430"></path></svg>